<?xml version="1.0" standalone="no"?>
<!DOCTYPE svg PUBLIC "-//W3C//DTD SVG 20010904//EN"
 "http://www.w3.org/TR/2001/REC-SVG-20010904/DTD/svg10.dtd">
<svg version="1.0" xmlns="http://www.w3.org/2000/svg"
 width="700.000000pt" height="700.000000pt" viewBox="0 0 700.000000 700.000000"
 preserveAspectRatio="xMidYMid meet">
<metadata>
Created by potrace 1.11, written by Peter Selinger 2001-2013
</metadata>
<g transform="translate(0.000000,700.000000) scale(0.100000,-0.100000)"
fill="#000000" stroke="none">
<path d="M3275 6692 c-317 -210 -408 -353 -401 -627 2 -97 6 -119 35 -190 37
-91 105 -197 222 -346 45 -57 89 -120 97 -139 24 -56 38 -139 38 -220 l-1 -74
-40 -7 c-97 -17 -113 -21 -168 -35 -32 -8 -90 -26 -128 -41 -38 -14 -71 -24
-73 -22 -2 2 -15 55 -29 117 -30 128 -68 231 -106 282 -39 54 -136 164 -242
275 -124 129 -174 188 -216 252 -40 63 -50 87 -58 144 -3 24 -12 85 -20 134
-8 50 -17 123 -21 163 -3 39 -9 72 -13 72 -12 0 -87 -112 -139 -207 -94 -176
-112 -272 -81 -427 47 -231 176 -374 499 -548 114 -61 175 -122 223 -222 57
-116 61 -103 -60 -183 -60 -39 -138 -98 -175 -132 -36 -33 -71 -61 -76 -61 -6
0 -34 30 -63 67 -130 166 -173 195 -474 323 -238 101 -305 137 -392 207 -20
17 -103 150 -176 283 -69 124 -68 124 -83 60 -38 -165 -50 -344 -29 -433 37
-158 147 -297 316 -399 32 -20 172 -65 229 -73 25 -4 47 -8 50 -10 3 -1 37 -6
75 -9 198 -19 221 -24 288 -58 32 -16 75 -45 97 -64 l40 -36 -34 -42 c-47 -58
-98 -140 -146 -235 l-41 -82 -47 28 c-195 115 -265 129 -654 134 -164 2 -292
16 -363 39 -20 6 -109 69 -199 139 -197 155 -188 149 -182 119 3 -12 8 -41 11
-62 8 -61 43 -189 71 -264 61 -165 198 -287 394 -352 122 -40 325 -19 577 59
92 29 171 32 251 11 35 -10 65 -20 68 -23 3 -2 -4 -40 -15 -83 -11 -44 -22
-95 -25 -114 -14 -102 -17 -130 -20 -185 l-3 -60 -39 1 c-22 1 -95 5 -164 9
-154 9 -194 0 -482 -116 -362 -145 -398 -149 -678 -72 -102 28 -187 50 -189
48 -2 -2 6 -17 18 -33 12 -17 21 -33 21 -36 0 -14 111 -156 166 -212 113 -114
215 -161 380 -171 207 -13 356 51 619 265 65 54 117 88 150 99 51 17 61 19
151 29 l52 6 6 -59 c9 -76 51 -254 76 -320 l19 -52 -68 -21 c-37 -11 -71 -20
-75 -20 -26 0 -151 -60 -201 -96 -74 -54 -98 -75 -255 -227 -69 -67 -152 -143
-186 -169 -120 -92 -154 -104 -341 -123 -34 -3 -72 -8 -84 -10 -12 -3 -49 -7
-82 -10 -33 -3 -66 -9 -73 -13 -9 -5 17 -27 79 -68 226 -150 374 -193 549
-159 44 9 164 54 206 78 114 65 237 220 362 455 38 71 89 127 158 170 81 51
85 51 122 -15 85 -151 179 -228 268 -222 46 4 67 14 114 58 69 64 64 130 -19
252 -73 107 -135 242 -164 354 -20 77 -23 115 -23 260 0 94 3 193 7 220 20
123 21 128 47 223 24 86 83 233 112 274 10 14 18 29 18 33 0 13 110 153 161
204 155 155 317 242 571 306 128 33 192 40 353 39 145 0 228 -13 360 -56 229
-74 431 -224 579 -432 67 -94 158 -278 201 -405 31 -94 33 -107 20 -120 -22
-23 -40 -7 -83 71 -145 266 -388 497 -650 619 -172 80 -316 113 -492 113 -188
1 -329 -32 -485 -111 -203 -103 -345 -257 -439 -473 -16 -38 -56 -171 -61
-205 -2 -11 -9 -54 -16 -95 -20 -126 -18 -305 5 -420 15 -74 29 -121 37 -126
5 -3 9 -13 9 -22 0 -35 94 -176 163 -247 40 -40 117 -102 173 -138 184 -121
353 -170 579 -169 158 0 240 19 376 88 420 210 587 473 544 852 -9 78 -87 227
-194 372 -23 30 -49 66 -59 80 -15 21 -76 93 -107 125 -23 24 -111 76 -159 94
-64 24 -106 31 -221 36 -49 3 -124 8 -165 12 -170 15 -270 -7 -404 -91 -77
-48 -178 -139 -213 -191 -54 -81 -82 -233 -77 -424 7 -266 99 -429 299 -526
231 -113 474 -117 639 -11 99 64 193 180 238 296 31 80 31 213 0 295 -60 157
-161 278 -277 331 -188 86 -398 39 -520 -118 -20 -25 -49 -77 -65 -114 -26
-61 -29 -79 -27 -159 2 -75 7 -99 30 -145 34 -70 84 -122 145 -152 37 -18 63
-23 124 -22 65 0 86 5 142 33 113 55 174 154 163 265 -8 89 -62 162 -129 172
-44 8 -50 -5 -33 -69 22 -87 2 -157 -55 -191 -37 -21 -68 -20 -108 4 -39 24
-54 57 -58 124 -4 83 43 166 119 211 124 72 299 -8 377 -173 35 -72 33 -187
-3 -266 -76 -164 -243 -267 -422 -260 -91 4 -108 8 -180 43 -107 53 -196 159
-240 287 -20 58 -23 85 -21 174 5 161 51 267 168 383 115 115 235 159 413 153
266 -10 470 -135 596 -366 107 -196 115 -413 20 -597 -73 -144 -211 -280 -357
-351 -156 -77 -330 -87 -553 -31 -288 72 -503 263 -574 509 -37 129 -57 395
-37 487 5 21 11 49 14 63 16 83 71 199 136 285 127 168 293 286 465 330 77 20
257 28 345 15 30 -5 78 -11 105 -14 187 -22 376 -100 535 -222 67 -51 94 -81
163 -181 113 -165 196 -355 213 -486 3 -23 7 -52 9 -65 2 -13 5 -73 6 -134 4
-257 82 -397 222 -399 23 -1 56 4 72 11 128 49 213 289 218 614 l2 106 33 -5
c126 -20 284 -25 356 -11 42 8 159 48 211 71 275 123 416 149 615 114 58 -10
143 -25 190 -33 47 -8 102 -17 124 -21 l38 -5 -28 47 c-69 118 -226 303 -301
352 -81 54 -170 75 -308 75 -111 0 -126 -3 -200 -32 -99 -39 -208 -108 -340
-217 -55 -45 -111 -88 -125 -95 -47 -25 -135 -46 -206 -49 l-72 -3 -17 79
c-19 87 -67 237 -95 295 -10 21 -15 40 -11 42 3 2 45 14 91 25 216 52 286 92
463 261 204 195 236 225 297 271 81 61 132 86 193 93 65 8 126 16 167 21 19 3
58 7 85 10 28 3 59 7 70 10 11 2 28 4 38 4 28 1 13 16 -76 74 -257 169 -415
203 -621 132 -138 -47 -223 -110 -326 -240 -33 -41 -139 -217 -175 -290 -34
-68 -108 -133 -199 -176 -46 -21 -86 -39 -89 -39 -3 0 -26 31 -51 69 -25 37
-80 108 -122 156 -42 48 -72 90 -67 94 54 36 174 134 214 173 80 80 119 149
229 413 80 193 138 300 195 361 26 28 103 79 222 147 l182 104 -57 13 c-31 8
-59 14 -62 15 -111 26 -277 33 -366 15 -79 -16 -165 -61 -244 -126 -36 -30
-70 -60 -75 -67 -88 -109 -137 -222 -160 -367 -4 -25 -9 -52 -10 -60 -7 -37
-15 -100 -20 -155 -9 -92 -14 -116 -35 -163 -22 -50 -88 -137 -128 -168 l-27
-22 -92 62 c-51 33 -132 81 -180 105 -48 24 -89 45 -91 46 -2 2 14 31 36 66
95 156 134 243 148 329 12 78 13 100 18 325 6 248 10 295 32 380 18 72 18 72
162 254 63 80 120 152 126 160 9 11 7 13 -9 8 -11 -3 -41 -8 -66 -11 -75 -10
-259 -65 -326 -98 -80 -39 -132 -85 -187 -161 -86 -122 -124 -237 -124 -375 0
-122 13 -197 70 -384 35 -117 40 -182 21 -262 -14 -65 -53 -166 -62 -166 -4 0
-56 11 -116 24 -127 28 -165 34 -295 41 -52 4 -95 7 -95 8 -1 1 6 47 15 102
21 126 20 299 -3 377 -9 31 -49 137 -88 235 -91 225 -113 292 -129 380 -14 79
-12 91 55 338 19 72 38 140 41 153 8 28 -1 27 -51 -6z"/>
<path d="M6618 3501 c-18 -21 -60 -73 -93 -116 -126 -164 -340 -360 -533 -488
-78 -51 -310 -173 -402 -210 -125 -50 -345 -115 -485 -142 -38 -8 -81 -17 -95
-20 -57 -12 -159 -28 -250 -40 -17 -2 -43 -6 -58 -9 -15 -3 -61 -8 -102 -11
-41 -3 -86 -8 -100 -10 -38 -5 -263 -22 -400 -30 -47 -2 -123 -7 -170 -10 -47
-3 -128 -7 -180 -10 -52 -3 -129 -7 -170 -10 -41 -2 -120 -7 -175 -10 -55 -3
-120 -8 -145 -10 -25 -3 -79 -7 -120 -10 -41 -3 -91 -7 -110 -10 -19 -2 -60
-7 -90 -10 -105 -11 -306 -39 -360 -50 -14 -3 -38 -8 -55 -11 -16 -2 -68 -14
-115 -25 -464 -109 -870 -296 -1235 -570 -155 -116 -183 -142 -191 -174 -9
-37 1 -54 79 -138 53 -58 76 -77 89 -72 9 4 45 43 79 88 124 159 283 292 444
371 145 70 292 117 460 146 61 10 89 14 204 25 118 12 433 7 565 -10 264 -33
279 -36 581 -96 138 -28 261 -52 275 -55 14 -3 57 -11 95 -19 39 -8 93 -17
120 -21 28 -3 59 -8 70 -10 11 -2 43 -7 70 -10 28 -3 56 -7 64 -10 7 -2 79
-11 160 -19 80 -8 169 -17 196 -20 204 -23 688 -23 850 0 17 2 57 7 90 10 33
3 85 10 115 15 30 5 73 12 95 15 121 18 442 108 515 145 43 22 90 71 125 130
41 70 115 226 115 242 0 8 4 18 9 23 20 22 180 557 196 655 3 19 10 58 15 85
19 103 33 281 34 410 0 141 -20 170 -76 106z"/>
<path d="M2470 1819 c-127 -11 -236 -24 -270 -34 -8 -2 -30 -7 -49 -10 -19 -3
-37 -8 -41 -10 -4 -2 -20 -6 -37 -9 -114 -21 -346 -123 -470 -208 -95 -65
-249 -216 -288 -281 -22 -39 -26 -56 -22 -89 5 -41 23 -61 133 -156 82 -71
272 -206 404 -286 143 -87 520 -266 559 -266 4 0 7 272 7 605 -1 333 -1 605
-1 605 2 0 422 -146 490 -170 50 -18 100 -35 113 -37 12 -3 22 -9 22 -14 0 -5
-2 -9 -4 -9 -2 0 -102 -34 -222 -76 -121 -42 -245 -85 -276 -96 l-58 -20 0
-408 0 -409 68 -20 c214 -63 383 -101 508 -116 28 -3 60 -7 72 -10 123 -23
664 -24 752 0 8 2 40 7 70 11 30 4 64 8 75 9 81 11 294 61 406 96 575 176
1071 493 1468 937 83 93 150 187 155 217 12 66 -52 75 -269 37 -66 -11 -147
-24 -180 -27 -33 -4 -71 -9 -85 -11 -139 -24 -727 -23 -965 1 -126 13 -153 16
-185 20 -19 2 -57 7 -85 10 -27 3 -108 14 -180 25 -71 11 -146 23 -165 26 -27
4 -475 90 -575 110 -22 5 -49 9 -115 19 -25 4 -52 9 -60 10 -8 2 -42 6 -75 10
-33 4 -73 8 -90 10 -150 18 -404 25 -535 14z"/>
</g>
</svg>
